<svg width="1550" height="474" viewBox="0 0 1550 474" fill="none" xmlns="http://www.w3.org/2000/svg">
<path d="M146.5 474C102.167 474 66.6667 465.667 40 449C13.3333 432 0 406.167 0 371.5C0 353.167 3.16667 339.167 9.5 329.5C15.8333 319.833 25.1667 315 37.5 315C46.5 315 53.8333 317.333 59.5 322C65.1667 326.667 68 332.667 68 340C68 346.667 67.5 352.5 66.5 357.5C66.5 358.833 66.1667 361.167 65.5 364.5C65.1667 367.833 65 371.333 65 375C65 390 72.5 401.167 87.5 408.5C102.833 415.833 124.167 419.5 151.5 419.5C179.833 419.5 202 414.5 218 404.5C234 394.167 242 379.833 242 361.5C242 350.167 238.333 340.5 231 332.5C223.667 324.167 214.5 317.333 203.5 312C192.5 306.333 177 299.5 157 291.5C131.333 281.5 110.333 272 94 263C78 254 64.1667 241.833 52.5 226.5C41.1667 210.833 35.5 191.5 35.5 168.5C35.5 144.5 41.8333 123.167 54.5 104.5C67.5 85.8333 86 71.3333 110 61C134.333 50.6667 162.833 45.5 195.5 45.5C219.833 45.5 242.167 49.1667 262.5 56.5C282.833 63.5 299 74.3333 311 89C323.333 103.667 329.5 121.667 329.5 143C329.5 164 326.333 179.833 320 190.5C313.667 201.167 304.333 206.5 292 206.5C283.333 206.5 276 203.833 270 198.5C264.333 193.167 261.5 186.833 261.5 179.5C261.5 173.167 262 167.333 263 162C264 152 264.5 145.667 264.5 143C264.5 129 257.667 118.333 244 111C230.333 103.667 213.333 100 193 100C164.333 100 142.333 105.333 127 116C112 126.333 104.5 141 104.5 160C104.5 172.667 108.333 183.5 116 192.5C124 201.5 133.833 209 145.5 215C157.167 221 173.5 228.167 194.5 236.5C219.833 246.833 240.167 256.167 255.5 264.5C270.833 272.833 283.833 284.167 294.5 298.5C305.5 312.833 311 330.5 311 351.5C311 390.833 296 421.167 266 442.5C236.333 463.5 196.5 474 146.5 474Z" fill="white"/>
<path d="M449.18 472.5C416.513 472.5 391.013 463.333 372.68 445C354.68 426.333 345.68 401.833 345.68 371.5C345.68 344.5 351.013 320.833 361.68 300.5C372.346 280.167 386.18 264.5 403.18 253.5C420.18 242.5 438.013 237 456.68 237C475.013 237 489.18 242.5 499.18 253.5C509.513 264.167 514.68 278 514.68 295C514.68 309 511.513 320.833 505.18 330.5C499.18 340.167 491.18 345 481.18 345C474.846 345 469.68 343.5 465.68 340.5C462.013 337.5 460.18 333.333 460.18 328C460.18 325.667 460.513 323 461.18 320C461.846 317 462.346 314.833 462.68 313.5C464.346 308.5 465.18 303.833 465.18 299.5C465.18 295.167 464.013 291.833 461.68 289.5C459.68 287.167 456.68 286 452.68 286C445.013 286 437.846 289.5 431.18 296.5C424.513 303.167 419.18 312.333 415.18 324C411.18 335.667 409.18 348.5 409.18 362.5C409.18 401.167 426.013 420.5 459.68 420.5C473.346 420.5 488.013 416 503.68 407C519.68 397.667 535.346 383.833 550.68 365.5C554.68 360.833 559.18 358.5 564.18 358.5C568.513 358.5 571.846 360.5 574.18 364.5C576.846 368.5 578.18 374 578.18 381C578.18 393.667 575.013 404 568.68 412C553.013 431.333 534.18 446.333 512.18 457C490.513 467.333 469.513 472.5 449.18 472.5Z" fill="white"/>
<path d="M573.262 472.5C560.595 472.5 551.595 465.833 546.262 452.5C541.262 439.167 538.762 417.833 538.762 388.5C538.762 345.167 544.928 304 557.262 265C560.262 255.333 565.095 248.333 571.762 244C578.762 239.333 588.428 237 600.762 237C607.428 237 612.095 237.833 614.762 239.5C617.428 241.167 618.762 244.333 618.762 249C618.762 254.333 616.262 266.333 611.262 285C607.928 298.333 605.262 310 603.262 320C601.262 330 599.595 342.333 598.262 357C609.262 328.333 621.595 305 635.262 287C648.928 269 662.262 256.167 675.262 248.5C688.595 240.833 700.762 237 711.762 237C733.428 237 744.262 247.833 744.262 269.5C744.262 273.833 742.762 284.333 739.762 301C737.095 314.333 735.762 322.667 735.762 326C735.762 337.667 739.928 343.5 748.262 343.5C757.595 343.5 769.595 336.167 784.262 321.5C788.595 317.167 793.095 315 797.762 315C802.095 315 805.428 317 807.762 321C810.428 324.667 811.762 329.667 811.762 336C811.762 348.333 808.428 358 801.762 365C792.428 374.667 781.428 383 768.762 390C756.428 396.667 743.262 400 729.262 400C711.595 400 698.095 395.5 688.762 386.5C679.762 377.5 675.262 365.333 675.262 350C675.262 345 675.762 340 676.762 335C677.428 328.333 677.762 323.833 677.762 321.5C677.762 316.167 675.928 313.5 672.262 313.5C667.262 313.5 660.595 319.167 652.262 330.5C644.262 341.5 636.262 356.167 628.262 374.5C620.262 392.833 613.762 412.167 608.762 432.5C605.095 448.167 600.762 458.833 595.762 464.5C591.095 469.833 583.595 472.5 573.262 472.5Z" fill="white"/>
<path d="M830.801 204C816.801 204 806.301 200.833 799.301 194.5C792.301 187.833 788.801 178.667 788.801 167C788.801 155.333 793.301 145.667 802.301 138C811.634 130 823.134 126 836.801 126C849.134 126 859.134 129 866.801 135C874.467 141 878.301 149.5 878.301 160.5C878.301 173.833 873.967 184.5 865.301 192.5C856.634 200.167 845.134 204 830.801 204ZM826.801 472.5C805.134 472.5 789.301 464.833 779.301 449.5C769.634 434.167 764.801 413.833 764.801 388.5C764.801 373.5 766.634 354.333 770.301 331C774.301 307.333 779.301 285.333 785.301 265C788.301 254.333 792.301 247 797.301 243C802.301 239 810.301 237 821.301 237C838.301 237 846.801 242.667 846.801 254C846.801 262.333 843.634 281.667 837.301 312C829.301 348.667 825.301 373.5 825.301 386.5C825.301 396.5 826.634 404.167 829.301 409.5C831.967 414.833 836.467 417.5 842.801 417.5C848.801 417.5 856.301 413.333 865.301 405C874.301 396.667 886.301 383.5 901.301 365.5C905.301 360.833 909.801 358.5 914.801 358.5C919.134 358.5 922.467 360.5 924.801 364.5C927.467 368.5 928.801 374 928.801 381C928.801 394.333 925.634 404.667 919.301 412C886.301 452.333 855.467 472.5 826.801 472.5Z" fill="white"/>
<path d="M1154.35 316.5C1158.68 316.5 1162.01 318.667 1164.35 323C1166.68 327.333 1167.85 332.833 1167.85 339.5C1167.85 347.833 1166.68 354.333 1164.35 359C1162.01 363.333 1158.35 366.333 1153.35 368C1133.35 375 1111.35 379 1087.35 380C1080.68 407.667 1068.01 430 1049.35 447C1031.01 464 1010.68 472.5 988.348 472.5C954.681 472.5 930.181 459.667 914.848 434C899.514 408.333 891.848 371.167 891.848 322.5C891.848 279.5 897.181 232.833 907.848 182.5C918.514 131.833 934.014 88.8333 954.348 53.5C975.014 17.8333 999.514 0 1027.85 0C1043.18 0 1055.51 6.66667 1064.85 20C1074.18 33 1078.85 50 1078.85 71C1078.85 98.3333 1073.68 125.5 1063.35 152.5C1053.01 179.5 1035.85 207.833 1011.85 237.5C1034.18 239.167 1052.35 248.5 1066.35 265.5C1080.35 282.167 1088.68 302.833 1091.35 327.5C1107.01 326.5 1125.68 323.167 1147.35 317.5C1149.35 316.833 1151.68 316.5 1154.35 316.5ZM1016.35 49.5C1009.68 49.5 1002.35 59.5 994.348 79.5C986.681 99.1667 979.514 126 972.848 160C966.181 194 961.181 231.167 957.848 271.5C979.848 231.167 997.348 195.667 1010.35 165C1023.68 134 1030.35 106.5 1030.35 82.5C1030.35 71.8333 1029.01 63.6667 1026.35 58C1024.01 52.3333 1020.68 49.5 1016.35 49.5ZM990.348 419.5C1000.68 419.5 1009.85 415.167 1017.85 406.5C1025.85 397.833 1031.18 385.333 1033.85 369C1023.51 362 1015.51 352.833 1009.85 341.5C1004.51 330.167 1001.85 318.167 1001.85 305.5C1001.85 300.833 1002.51 294.5 1003.85 286.5H1002.35C988.681 286.5 977.181 293.333 967.848 307C958.848 320.333 954.348 338.333 954.348 361C954.348 380 957.848 394.5 964.848 404.5C972.181 414.5 980.681 419.5 990.348 419.5Z" fill="white"/>
<path d="M1347.68 358.5C1352.01 358.5 1355.34 360.5 1357.68 364.5C1360.34 368.5 1361.68 374 1361.68 381C1361.68 394.333 1358.51 404.667 1352.18 412C1339.84 427 1322.34 440.833 1299.68 453.5C1277.34 466.167 1253.34 472.5 1227.68 472.5C1192.68 472.5 1165.51 463 1146.18 444C1126.84 425 1117.18 399 1117.18 366C1117.18 343 1122.01 321.667 1131.68 302C1141.34 282 1154.68 266.167 1171.68 254.5C1189.01 242.833 1208.51 237 1230.18 237C1249.51 237 1265.01 242.833 1276.68 254.5C1288.34 265.833 1294.18 281.333 1294.18 301C1294.18 324 1285.84 343.833 1269.18 360.5C1252.84 376.833 1225.01 389.833 1185.68 399.5C1194.01 414.833 1209.84 422.5 1233.18 422.5C1248.18 422.5 1265.18 417.333 1284.18 407C1303.51 396.333 1320.18 382.5 1334.18 365.5C1338.18 360.833 1342.68 358.5 1347.68 358.5ZM1221.68 286C1209.34 286 1198.84 293.167 1190.18 307.5C1181.84 321.833 1177.68 339.167 1177.68 359.5V360.5C1197.34 355.833 1212.84 348.833 1224.18 339.5C1235.51 330.167 1241.18 319.333 1241.18 307C1241.18 300.667 1239.34 295.667 1235.68 292C1232.34 288 1227.68 286 1221.68 286Z" fill="white"/>
<path d="M1522.96 305.5C1530.3 305.5 1536.46 308.167 1541.46 313.5C1546.8 318.5 1549.46 324.833 1549.46 332.5C1549.46 336.833 1548.46 341.5 1546.46 346.5C1541.13 358.833 1533.63 369.167 1523.96 377.5C1514.3 385.833 1503.63 390 1491.96 390C1482.63 390 1474.63 386.667 1467.96 380C1461.63 373.333 1458.46 364.333 1458.46 353C1458.46 346.667 1458.8 339.833 1459.46 332.5C1460.13 327.167 1460.46 323.5 1460.46 321.5C1460.46 318.833 1459.8 316.833 1458.46 315.5C1457.46 314.167 1456.13 313.5 1454.46 313.5C1449.8 313.5 1443.46 319.167 1435.46 330.5C1427.46 341.5 1419.46 356.167 1411.46 374.5C1403.46 392.833 1396.96 412.167 1391.96 432.5C1388.3 448.5 1384.13 459.167 1379.46 464.5C1374.8 469.833 1367.13 472.5 1356.46 472.5C1343.8 472.5 1334.8 465.833 1329.46 452.5C1324.46 439.167 1321.96 417.833 1321.96 388.5C1321.96 345.167 1328.13 304 1340.46 265C1343.46 255.333 1348.3 248.333 1354.96 244C1361.96 239.333 1371.63 237 1383.96 237C1390.63 237 1395.3 237.833 1397.96 239.5C1400.63 241.167 1401.96 244.333 1401.96 249C1401.96 254.333 1399.46 266.333 1394.46 285C1391.13 298.333 1388.46 310 1386.46 320C1384.46 330 1382.8 342.333 1381.46 357C1392.46 328.333 1404.8 305 1418.46 287C1432.13 269 1445.46 256.167 1458.46 248.5C1471.46 240.833 1483.3 237 1493.96 237C1503.63 237 1510.96 239.833 1515.96 245.5C1521.3 250.833 1523.96 258.833 1523.96 269.5C1523.96 275.833 1522.13 287.833 1518.46 305.5H1522.96Z" fill="white"/>
</svg>
